<?xml version="1.0" encoding="UTF-8"?><svg id="Layer_1" xmlns="http://www.w3.org/2000/svg" viewBox="0 0 2000 554.77"><path d="M828.62,485.17c2.51-1.57,5.41-2.35,8.68-2.35,1.82,0,3.69,.37,5.62,1.09,1.93,.73,3.73,1.71,5.41,2.95,1.67,1.24,3.06,2.62,4.15,4.15l7.31-8.95c-2.26-3.42-5.51-6.13-9.77-8.13-4.26-2-8.94-3-14.03-3-5.39,0-10.23,1.31-14.52,3.93-4.3,2.62-7.68,6.19-10.15,10.7-2.47,4.52-3.71,9.61-3.71,15.28s1.24,10.77,3.71,15.29c2.47,4.51,5.86,8.08,10.15,10.7,4.29,2.62,9.13,3.93,14.52,3.93,4.73,0,9.28-1.02,13.65-3.06,4.37-2.04,7.75-4.66,10.15-7.86l-7.31-8.95c-1.38,1.75-2.89,3.2-4.53,4.37-1.64,1.16-3.33,2.06-5.08,2.67-1.75,.62-3.6,.93-5.57,.93-3.13,0-5.97-.8-8.52-2.4-2.55-1.6-4.57-3.75-6.06-6.44-1.49-2.69-2.24-5.75-2.24-9.17s.73-6.5,2.18-9.22c1.45-2.73,3.44-4.88,5.95-6.44Z"/><path d="M911.54,474.8c-4.51-2.58-9.61-3.88-15.29-3.88s-10.88,1.29-15.39,3.88c-4.51,2.59-8.06,6.13-10.64,10.65-2.58,4.51-3.88,9.64-3.88,15.39s1.29,10.88,3.88,15.39c2.58,4.51,6.13,8.06,10.64,10.64,4.51,2.59,9.64,3.88,15.39,3.88s10.77-1.29,15.29-3.88c4.51-2.58,8.06-6.13,10.64-10.64,2.58-4.51,3.88-9.64,3.88-15.39s-1.29-10.88-3.88-15.39c-2.59-4.51-6.13-8.06-10.64-10.65Zm-1.04,35.26c-1.42,2.73-3.37,4.88-5.84,6.44-2.48,1.57-5.28,2.35-8.41,2.35s-5.95-.78-8.46-2.35c-2.51-1.56-4.46-3.71-5.84-6.44-1.38-2.73-2.07-5.8-2.07-9.23s.69-6.5,2.07-9.22c1.38-2.73,3.33-4.88,5.84-6.44,2.51-1.57,5.33-2.35,8.46-2.35s5.93,.76,8.41,2.29c2.47,1.53,4.42,3.66,5.84,6.39,1.42,2.73,2.09,5.84,2.02,9.33,.07,3.42-.6,6.5-2.02,9.23Z"/><path d="M980.6,473.54c-2.95-1.75-6.6-2.62-10.97-2.62-3.13,0-6.15,.67-9.06,2.02-2.91,1.35-5.4,3.09-7.48,5.24-.7,.73-1.31,1.49-1.86,2.27l-.15-8.32h-12.99v57.54h13.32v-34.61c0-1.75,.35-3.37,1.04-4.86,.69-1.49,1.64-2.8,2.84-3.93,1.2-1.13,2.64-2,4.31-2.62,1.67-.62,3.49-.93,5.46-.93,2.4-.15,4.44,.24,6.11,1.15,1.67,.91,2.91,2.33,3.71,4.26,.8,1.93,1.2,4.39,1.2,7.37v34.17h13.32v-35.15c0-5.24-.73-9.61-2.18-13.1-1.46-3.49-3.66-6.11-6.61-7.86Z"/><path d="M1047.09,473.54c-2.95-1.75-6.61-2.62-10.97-2.62-3.13,0-6.15,.67-9.06,2.02-2.91,1.35-5.4,3.09-7.48,5.24-.71,.73-1.31,1.49-1.87,2.27l-.15-8.32h-12.99v57.54h13.32v-34.61c0-1.75,.34-3.37,1.04-4.86,.69-1.49,1.64-2.8,2.84-3.93,1.2-1.13,2.64-2,4.31-2.62,1.67-.62,3.49-.93,5.46-.93,2.4-.15,4.44,.24,6.11,1.15,1.67,.91,2.91,2.33,3.71,4.26,.8,1.93,1.2,4.39,1.2,7.37v34.17h13.32v-35.15c0-5.24-.73-9.61-2.18-13.1-1.46-3.49-3.66-6.11-6.6-7.86Z"/><path d="M1115.81,478.95c-2.4-2.51-5.22-4.49-8.46-5.95-3.24-1.46-6.79-2.18-10.64-2.18-4.22,0-8.13,.75-11.74,2.24-3.6,1.49-6.72,3.6-9.33,6.33s-4.66,5.95-6.11,9.66c-1.46,3.71-2.18,7.82-2.18,12.34,0,5.75,1.29,10.83,3.88,15.23,2.58,4.4,6.19,7.86,10.81,10.37,4.62,2.51,9.95,3.77,15.99,3.77,2.69,0,5.42-.36,8.19-1.09s5.41-1.73,7.92-3c2.51-1.27,4.75-2.82,6.72-4.64l-6.55-9.17c-2.62,2.26-5.08,3.82-7.37,4.7s-4.79,1.31-7.48,1.31c-3.86,0-7.24-.76-10.15-2.29-2.91-1.53-5.15-3.67-6.72-6.44-1.03-1.82-1.69-3.88-2.04-6.11h42.49l.11-4.8c.07-4.08-.53-7.84-1.8-11.3-1.27-3.46-3.11-6.44-5.51-8.95Zm-28.06,5.79c2.47-1.35,5.5-2.02,9.06-2.02,2.33,0,4.46,.49,6.39,1.47,1.93,.98,3.51,2.33,4.75,4.04,1.24,1.71,1.96,3.66,2.18,5.84v.65h-29.35c.32-1.47,.75-2.83,1.34-4.04,1.27-2.62,3.15-4.6,5.62-5.95Z"/><path d="M1152.33,485.17c2.51-1.57,5.4-2.35,8.68-2.35,1.82,0,3.69,.37,5.62,1.09,1.93,.73,3.73,1.71,5.4,2.95,1.67,1.24,3.06,2.62,4.15,4.15l7.31-8.95c-2.26-3.42-5.51-6.13-9.77-8.13-4.26-2-8.94-3-14.03-3-5.39,0-10.23,1.31-14.52,3.93-4.3,2.62-7.68,6.19-10.15,10.7-2.48,4.52-3.71,9.61-3.71,15.28s1.24,10.77,3.71,15.29c2.47,4.51,5.86,8.08,10.15,10.7,4.29,2.62,9.13,3.93,14.52,3.93,4.73,0,9.28-1.02,13.65-3.06,4.37-2.04,7.75-4.66,10.15-7.86l-7.31-8.95c-1.38,1.75-2.89,3.2-4.53,4.37-1.64,1.16-3.33,2.06-5.08,2.67-1.75,.62-3.6,.93-5.57,.93-3.13,0-5.97-.8-8.52-2.4-2.55-1.6-4.57-3.75-6.06-6.44-1.49-2.69-2.24-5.75-2.24-9.17s.73-6.5,2.18-9.22,3.44-4.88,5.95-6.44Z"/><polygon points="1213.42 457.49 1200.1 457.49 1200.1 472.12 1188.74 472.12 1188.74 484.57 1200.1 484.57 1200.1 529.66 1213.42 529.66 1213.42 484.57 1225.97 484.57 1225.97 472.12 1213.42 472.12 1213.42 457.49"/><path d="M1244.31,444.39c-2.62,0-4.7,.71-6.22,2.13s-2.29,3.29-2.29,5.62c0,2.47,.75,4.38,2.24,5.73,1.49,1.35,3.58,2.02,6.28,2.02s4.69-.73,6.22-2.18c1.53-1.45,2.29-3.31,2.29-5.57,0-2.47-.75-4.38-2.24-5.73-1.49-1.35-3.59-2.02-6.28-2.02Z"/><rect x="1237.76" y="472.12" width="13.32" height="57.54"/><path d="M1310.64,473.54c-2.95-1.75-6.61-2.62-10.97-2.62-3.13,0-6.15,.67-9.06,2.02-2.91,1.35-5.4,3.09-7.48,5.24-.71,.73-1.31,1.49-1.87,2.27l-.16-8.32h-12.99v57.54h13.32v-34.61c0-1.75,.34-3.37,1.04-4.86,.69-1.49,1.64-2.8,2.84-3.93,1.2-1.13,2.64-2,4.31-2.62,1.67-.62,3.49-.93,5.46-.93,2.4-.15,4.44,.24,6.11,1.15,1.67,.91,2.91,2.33,3.71,4.26,.8,1.93,1.2,4.39,1.2,7.37v34.17h13.32v-35.15c0-5.24-.73-9.61-2.18-13.1-1.46-3.49-3.66-6.11-6.6-7.86Z"/><path d="M1377.5,479.47c-.69-.84-1.44-1.66-2.33-2.44-1.35-1.16-2.89-2.22-4.64-3.17-1.75-.95-3.64-1.67-5.68-2.18-2.04-.51-4.11-.77-6.22-.77-5.24,0-9.97,1.29-14.19,3.88-4.22,2.59-7.53,6.11-9.94,10.59-2.4,4.48-3.6,9.59-3.6,15.34s1.22,10.85,3.66,15.28c2.44,4.44,5.77,7.92,9.99,10.43s9.03,3.77,14.41,3.77c3.13,0,6.19-.62,9.17-1.86,2.98-1.24,5.48-2.88,7.48-4.91,.67-.68,1.21-1.37,1.69-2.08v5.46c0,3.57-.65,6.57-1.96,9.01-1.31,2.44-3.26,4.28-5.84,5.51-2.59,1.24-5.81,1.86-9.66,1.86-3.2,0-6.39-.49-9.55-1.47-3.17-.98-5.84-2.31-8.02-3.99l-4.8,10.05c2.62,2.04,6.06,3.71,10.32,5.02,4.26,1.31,8.5,1.97,12.72,1.97,4.73,0,8.95-.66,12.66-1.97,3.71-1.31,6.88-3.2,9.5-5.68,2.62-2.48,4.6-5.5,5.95-9.06,1.35-3.57,2.02-7.68,2.02-12.34v-53.61h-12.99l-.12,7.35Zm-7.74,36.98c-2.55,1.53-5.5,2.29-8.84,2.29s-6.06-.77-8.57-2.29-4.48-3.64-5.9-6.33c-1.42-2.69-2.13-5.79-2.13-9.28s.71-6.6,2.13-9.33c1.42-2.73,3.39-4.87,5.9-6.44,2.51-1.56,5.37-2.35,8.57-2.35s6.28,.76,8.79,2.29c2.51,1.53,4.48,3.66,5.9,6.39,1.42,2.73,2.13,5.88,2.13,9.44s-.69,6.59-2.07,9.28c-1.38,2.69-3.35,4.8-5.9,6.33Z"/><path d="M1516.6,473.76c-2.91-1.75-6.55-2.62-10.92-2.62-1.89,0-3.84,.29-5.84,.87-2,.58-3.91,1.44-5.73,2.57-1.82,1.13-3.46,2.42-4.91,3.88-1.27,1.27-2.28,2.67-3.11,4.16-.77-2.03-1.71-3.79-2.84-5.26-1.64-2.11-3.66-3.67-6.06-4.7-2.4-1.02-5.17-1.53-8.3-1.53-2.18,0-4.3,.35-6.33,1.04-2.04,.69-3.97,1.66-5.79,2.89-1.82,1.24-3.38,2.67-4.7,4.31-.31,.39-.55,.82-.82,1.22l-.16-8.48h-13.1v57.54h13.43v-34.5c0-1.75,.33-3.35,.98-4.8,.65-1.45,1.58-2.75,2.78-3.88,1.2-1.13,2.58-2,4.15-2.62,1.56-.62,3.29-.93,5.19-.93,3.28,0,5.8,1.09,7.59,3.27,1.78,2.18,2.67,5.35,2.67,9.5v33.95h13.43v-34.28c0-1.82,.33-3.48,.98-4.97s1.58-2.8,2.78-3.93c1.2-1.13,2.6-2,4.2-2.62,1.6-.62,3.35-.93,5.24-.93,3.56,0,6.2,1.06,7.92,3.17,1.71,2.11,2.57,5.35,2.57,9.72v33.85h13.43v-34.72c0-5.24-.73-9.64-2.18-13.21-1.46-3.57-3.64-6.22-6.55-7.97Z"/><path d="M1575.17,473.1c-3.31-1.45-7.26-2.18-11.85-2.18s-9.28,.95-13.43,2.84c-4.15,1.89-7.94,4.66-11.35,8.3l8.3,8.3c2.11-2.62,4.4-4.53,6.88-5.73,2.47-1.2,5.24-1.8,8.3-1.8,3.27,0,5.95,.89,8.02,2.67,2.08,1.79,3.11,4.24,3.11,7.37v2.18h-10.04c-4.22,0-7.95,.38-11.19,1.15-3.24,.76-5.93,1.91-8.08,3.44s-3.77,3.44-4.86,5.73c-1.09,2.29-1.64,4.97-1.64,8.02,0,3.49,.86,6.53,2.57,9.12,1.71,2.59,4.02,4.61,6.93,6.06,2.91,1.45,6.22,2.18,9.94,2.18,2.76,0,5.44-.55,8.02-1.64,2.58-1.09,4.98-2.58,7.21-4.48,.41-.35,.76-.78,1.15-1.15v6.17h12.45v-39.52c0-4.15-.91-7.66-2.73-10.54-1.82-2.88-4.39-5.04-7.7-6.5Zm-4.2,42.36c-1.68,1.46-3.59,2.59-5.73,3.38-2.15,.8-4.42,1.2-6.82,1.2-1.67,0-3.13-.29-4.37-.87-1.24-.58-2.22-1.4-2.95-2.46-.73-1.05-1.09-2.31-1.09-3.77s.25-2.57,.76-3.55c.51-.98,1.31-1.84,2.4-2.57,1.09-.73,2.4-1.27,3.93-1.64s3.27-.55,5.24-.55h10.81v8.55c-.64,.8-1.37,1.55-2.18,2.26Z"/><path d="M1641.06,478.63c-.93-1-1.99-1.96-3.22-2.85-2.08-1.49-4.4-2.68-6.99-3.55s-5.26-1.31-8.02-1.31c-5.1,0-9.66,1.29-13.7,3.88-4.04,2.59-7.22,6.13-9.55,10.65-2.33,4.51-3.49,9.64-3.49,15.39s1.18,10.97,3.55,15.45c2.36,4.48,5.57,8.01,9.61,10.59,4.04,2.59,8.64,3.88,13.81,3.88,2.62,0,5.17-.42,7.64-1.25,2.47-.84,4.68-1.95,6.6-3.33,1.64-1.17,2.94-2.47,4.02-3.86l.18,7.35h12.99v-80.79h-13.43v29.76Zm-1.58,31.87c-1.35,2.8-3.22,4.99-5.62,6.55-2.4,1.57-5.17,2.35-8.3,2.35s-5.99-.78-8.35-2.35c-2.37-1.56-4.24-3.75-5.62-6.55-1.38-2.8-2.07-6.02-2.07-9.66s.69-6.84,2.07-9.61c1.38-2.77,3.26-4.95,5.62-6.55,2.36-1.6,5.15-2.4,8.35-2.4s5.9,.8,8.3,2.4c2.4,1.6,4.28,3.79,5.62,6.55,1.35,2.77,2.02,5.97,2.02,9.61s-.67,6.86-2.02,9.66Z"/><path d="M1714.54,478.95c-2.4-2.51-5.22-4.49-8.46-5.95-3.24-1.46-6.79-2.18-10.64-2.18-4.22,0-8.13,.75-11.74,2.24-3.6,1.49-6.72,3.6-9.34,6.33-2.62,2.73-4.66,5.95-6.11,9.66-1.46,3.71-2.18,7.82-2.18,12.34,0,5.75,1.29,10.83,3.88,15.23,2.58,4.4,6.18,7.86,10.81,10.37,4.62,2.51,9.95,3.77,15.99,3.77,2.69,0,5.42-.36,8.19-1.09,2.76-.73,5.41-1.73,7.92-3,2.51-1.27,4.75-2.82,6.71-4.64l-6.55-9.17c-2.62,2.26-5.08,3.82-7.37,4.7-2.29,.87-4.79,1.31-7.48,1.31-3.86,0-7.24-.76-10.15-2.29-2.91-1.53-5.15-3.67-6.72-6.44-1.03-1.82-1.69-3.88-2.04-6.11h42.49l.11-4.8c.07-4.08-.53-7.84-1.8-11.3-1.27-3.46-3.11-6.44-5.51-8.95Zm-28.06,5.79c2.47-1.35,5.49-2.02,9.06-2.02,2.33,0,4.46,.49,6.39,1.47,1.93,.98,3.51,2.33,4.75,4.04,1.24,1.71,1.96,3.66,2.18,5.84v.65h-29.35c.32-1.47,.75-2.83,1.34-4.04,1.27-2.62,3.15-4.6,5.62-5.95Z"/><path d="M1810.51,478.95c-2.4-2.51-5.22-4.49-8.46-5.95-3.24-1.46-6.79-2.18-10.64-2.18-4.22,0-8.13,.75-11.74,2.24-3.6,1.49-6.72,3.6-9.33,6.33s-4.66,5.95-6.11,9.66c-1.46,3.71-2.18,7.82-2.18,12.34,0,5.75,1.29,10.83,3.88,15.23,2.58,4.4,6.19,7.86,10.81,10.37,4.62,2.51,9.95,3.77,15.99,3.77,2.69,0,5.42-.36,8.19-1.09s5.41-1.73,7.92-3c2.51-1.27,4.75-2.82,6.71-4.64l-6.55-9.17c-2.62,2.26-5.08,3.82-7.37,4.7s-4.79,1.31-7.48,1.31c-3.86,0-7.24-.76-10.15-2.29-2.91-1.53-5.15-3.67-6.72-6.44-1.03-1.82-1.69-3.88-2.04-6.11h42.49l.11-4.8c.07-4.08-.53-7.84-1.8-11.3-1.27-3.46-3.11-6.44-5.51-8.95Zm-28.06,5.79c2.47-1.35,5.5-2.02,9.06-2.02,2.33,0,4.46,.49,6.39,1.47,1.93,.98,3.51,2.33,4.75,4.04,1.24,1.71,1.96,3.66,2.18,5.84v.65h-29.35c.32-1.47,.75-2.83,1.34-4.04,1.27-2.62,3.15-4.6,5.62-5.95Z"/><path d="M1864.6,473.1c-3.31-1.45-7.26-2.18-11.85-2.18s-9.28,.95-13.43,2.84c-4.15,1.89-7.93,4.66-11.35,8.3l8.3,8.3c2.11-2.62,4.4-4.53,6.88-5.73,2.47-1.2,5.24-1.8,8.3-1.8,3.27,0,5.95,.89,8.02,2.67,2.08,1.79,3.11,4.24,3.11,7.37v2.18h-10.04c-4.22,0-7.95,.38-11.19,1.15-3.24,.76-5.93,1.91-8.08,3.44-2.15,1.53-3.77,3.44-4.86,5.73s-1.64,4.97-1.64,8.02c0,3.49,.85,6.53,2.57,9.12,1.71,2.59,4.02,4.61,6.93,6.06,2.91,1.45,6.22,2.18,9.93,2.18,2.76,0,5.44-.55,8.02-1.64s4.99-2.58,7.21-4.48c.41-.35,.76-.78,1.15-1.15v6.17h12.45v-39.52c0-4.15-.91-7.66-2.73-10.54-1.82-2.88-4.39-5.04-7.7-6.5Zm-4.2,42.36c-1.67,1.46-3.59,2.59-5.73,3.38-2.15,.8-4.42,1.2-6.82,1.2-1.67,0-3.13-.29-4.37-.87s-2.22-1.4-2.95-2.46c-.73-1.05-1.09-2.31-1.09-3.77s.25-2.57,.76-3.55c.51-.98,1.31-1.84,2.4-2.57,1.09-.73,2.4-1.27,3.93-1.64s3.28-.55,5.24-.55h10.81v8.55c-.64,.8-1.37,1.55-2.18,2.26Z"/><path d="M1926.45,502.58c-1.38-1.53-3.28-2.88-5.68-4.04s-5.39-2.22-8.95-3.17c-2.55-.58-4.62-1.2-6.22-1.86-1.6-.65-2.77-1.24-3.49-1.75-.73-.51-1.29-1.15-1.69-1.91-.4-.76-.64-1.62-.71-2.57,0-.94,.2-1.8,.6-2.56,.4-.76,.96-1.4,1.69-1.91,.73-.51,1.64-.89,2.73-1.15,1.09-.25,2.33-.38,3.71-.38,1.45,0,3.02,.29,4.7,.87,1.67,.58,3.33,1.4,4.97,2.46,1.64,1.06,3.11,2.24,4.42,3.55l7.43-8.19c-1.68-1.89-3.68-3.51-6-4.86-2.33-1.35-4.86-2.38-7.59-3.11-2.73-.73-5.55-1.09-8.46-1.09-3.93,0-7.5,.73-10.7,2.18-3.2,1.46-5.77,3.46-7.7,6-1.93,2.55-2.89,5.46-2.89,8.74,0,2.11,.29,4.02,.87,5.73,.58,1.71,1.49,3.29,2.73,4.75,1.45,1.67,3.51,3.18,6.17,4.53,2.66,1.35,5.95,2.53,9.88,3.55,2.47,.58,4.48,1.18,6,1.8s2.66,1.15,3.38,1.58c1.31,1.02,1.97,2.4,1.97,4.15,0,.95-.2,1.82-.6,2.62-.4,.8-.97,1.49-1.69,2.07-.73,.58-1.58,1.02-2.56,1.31-.98,.29-2.09,.44-3.33,.44-2.98,0-5.82-.56-8.52-1.69-2.69-1.13-5.13-2.89-7.31-5.29l-8.62,7.42c2.55,3.21,5.84,5.66,9.88,7.37,4.04,1.71,8.57,2.56,13.59,2.56,4.15,0,7.86-.76,11.14-2.29s5.88-3.62,7.81-6.28c1.93-2.66,2.89-5.69,2.89-9.12,0-2.18-.29-4.15-.87-5.89s-1.57-3.28-2.95-4.59Z"/><path d="M1969.47,510.01c-.56,1.53-1.1,3.06-1.62,4.59-.09-.28-.15-.54-.24-.83-.51-1.56-1.02-2.82-1.53-3.77l-15.94-37.88h-15.39l26.34,58.97-10.19,23.68h13.97l9.72-25.11,23.91-57.54h-15.5l-13.54,37.88Z"/><path d="M87.18,280.8l13.76,8.47c99.5-52.93,56.73-160.9,0-176.78l-13.76,10.59s89.97,71.98,0,157.72Z"/><path d="M62.25,267.82c65.38-43.86,38.09-115.31,0-131.77l-9.3,7.89s49.35,52.13,0,117.57l9.3,6.31Z"/><path d="M256.93,88.63h104.95V0H47.83s-.05,0-.07,0c-.02,0-.05,0-.07,0H0V88.63H83.7c.48,.1,.95,.16,1.43,.16,14.8,0,28.77,2.59,41.9,7.77,13.14,5.18,24.51,12.76,34.13,22.75,9.63,9.99,17.2,21.83,22.75,35.52,5.55,13.69,8.32,29.23,8.32,46.61s-2.68,32.46-8.05,46.34c-5.36,13.87-13.13,25.72-23.31,35.52-10.17,9.81-22.38,17.3-36.63,22.48-14.24,5.18-30.05,7.77-47.45,7.77-9.47,0-18.62-1.13-27.47-3.28v87.55h-4.02c14.22,2.64,28.6,3.97,43.14,3.97,29.23,0,56.14-4.91,80.74-14.71,24.61-9.8,45.88-23.67,63.82-41.62,17.95-17.94,31.82-39.21,41.62-63.82,9.81-24.6,14.71-51.51,14.71-80.74s-5.08-55.49-15.26-79.91c-4.79-11.49-10.53-22.25-17.16-32.35Z"/><path d="M553.04,119.06c-17.36-7.08-37.91-10.63-61.64-10.63-25.86,0-49.78,4.97-71.74,14.88-21.97,9.92-41.45,23.56-58.45,40.92l51.01,49.42c9.91-11.69,20.27-20.1,31.09-25.24,10.8-5.13,23.12-7.7,36.93-7.7s25.24,3.45,33.21,10.36c7.97,6.91,11.96,17.63,11.96,32.15v6.38h-41.98c-20.91,0-39.24,1.86-55,5.58-15.77,3.72-28.88,9.21-39.32,16.47-10.45,7.27-18.33,16.39-23.65,27.37-5.31,10.98-7.97,23.74-7.97,38.26,0,17,4.16,31.8,12.49,44.37,8.32,12.58,19.66,22.41,34.01,29.49,14.35,7.08,30.37,10.63,48.09,10.63,13.46,0,26.3-2.66,38.53-7.97,12.22-5.31,23.56-12.57,34.01-21.79,.28-.24,.52-.51,.8-.76v25.2h82.36V206.75c0-22.32-4.78-40.74-14.35-55.27-9.56-14.52-23.03-25.32-40.38-32.41Zm-27.63,198.18c-1.43,1.48-2.93,2.91-4.52,4.28-6.56,5.67-14,10.01-22.32,13.02-8.33,3.01-17.1,4.52-26.3,4.52-6.38,0-11.96-1.06-16.74-3.19-4.78-2.13-8.59-5.13-11.43-9.03-2.84-3.89-4.25-8.5-4.25-13.82,0-4.96,.97-9.21,2.92-12.75,1.94-3.54,4.87-6.64,8.77-9.3,3.89-2.66,8.68-4.6,14.35-5.85,5.66-1.24,12.22-1.86,19.66-1.86h39.86v33.98Z"/><path d="M1104.07,222.2c-.34-3.99-.51-8.08-.51-12.27,0-16.65,2.66-31.53,7.97-44.64,5.31-13.1,12.57-24.45,21.79-34.01,9.21-9.57,20.1-16.82,32.68-21.78,12.57-4.96,25.95-7.44,40.12-7.44,16.65,0,31.79,3.37,45.44,10.1,13.63,6.73,25.95,16.12,36.93,28.16l55.8-63.24c-10.63-12.75-23.3-23.65-37.99-32.68-14.7-9.03-30.55-15.85-47.56-20.46-17.01-4.6-34.37-6.91-52.08-6.91-27.99,0-53.94,4.78-77.85,14.35-23.91,9.57-44.73,23.03-62.44,40.39-17.72,17.36-31.44,37.73-41.18,61.11-9.75,23.38-14.61,48.89-14.61,76.52,0,4.33,.15,8.58,.37,12.8h93.13Z"/><path d="M1341.08,350.75l-44.11-70.14c-6.38,7.09-14,13.47-22.85,19.13-8.86,5.67-18.33,10.01-28.43,13.02-10.1,3.02-20.64,4.52-31.62,4.52-16.65,0-31.8-2.47-45.43-7.44-13.64-4.96-25.33-12.13-35.07-21.52-.12-.12-.24-.24-.36-.36h-108.05c9.35,23.04,22.45,43,39.33,59.88,17.18,17.19,37.55,30.47,61.11,39.85,23.56,9.38,49.33,14.08,77.32,14.08,18.42,0,36.58-2.22,54.47-6.64,17.89-4.43,34.18-10.54,48.89-18.33,14.7-7.79,26.31-16.47,34.81-26.04Z"/><path d="M966.97,287.95h-85.97c-.76,2.12-1.57,4.2-2.49,6.21-5.14,11.16-12.41,19.75-21.79,25.77-9.39,6.03-20.46,9.04-33.21,9.04s-24.44-3.01-34.01-9.04c-9.56-6.02-17-14.61-22.32-25.77-5.31-11.16-7.97-24-7.97-38.53s2.66-28.34,7.97-39.32c5.31-10.98,12.75-19.57,22.32-25.77,9.57-6.19,20.9-9.3,34.01-9.3s23.82,3.11,33.21,9.3c9.38,6.2,16.65,14.88,21.79,26.04,.84,1.82,1.58,3.71,2.28,5.62h86.11c-2.61-15.41-7.06-29.71-13.46-42.82-10.81-22.14-25.6-39.41-44.37-51.81-18.78-12.4-40.21-18.6-64.3-18.6-16.3,0-31.71,2.92-46.23,8.77-14.53,5.85-26.66,13.47-36.4,22.85-1.15,1.11-2.23,2.23-3.27,3.36l-1.77-29.66h-81.3v399.07h86.09v-145.1c9.82,9.69,21.85,17.59,36.13,23.67,14.52,6.19,29.93,9.3,46.23,9.3,24.09,0,45.61-6.29,64.56-18.87,18.95-12.57,33.83-29.84,44.64-51.81,6.45-13.12,10.93-27.34,13.53-42.61Z"/><path d="M1658.32,179.38c-13.11-22.14-31.09-39.5-53.94-52.08-22.85-12.57-48.98-18.87-78.38-18.87s-55.09,6.29-78.11,18.87c-23.03,12.58-41.1,29.94-54.2,52.08-7.77,13.12-13.22,27.4-16.38,42.82h89.6c.69-1.64,1.43-3.26,2.24-4.83,5.66-10.98,13.46-19.66,23.38-26.04,9.91-6.38,21.07-9.57,33.48-9.57s24,3.1,33.74,9.3c9.74,6.2,17.45,14.88,23.12,26.04,5.66,11.16,8.32,24,7.97,38.53,.35,13.82-2.31,26.22-7.97,37.2-5.67,10.99-13.38,19.66-23.12,26.04-9.75,6.38-20.99,9.57-33.74,9.57s-23.57-3.19-33.48-9.57c-9.92-6.38-17.72-15.05-23.38-26.04-.82-1.59-1.57-3.23-2.27-4.88h-89.65c3.15,15.34,8.63,29.63,16.47,42.87,13.1,22.14,31.17,39.51,54.2,52.08,23.02,12.58,49.06,18.86,78.11,18.86s55.53-6.28,78.38-18.86c22.85-12.57,40.82-29.93,53.94-52.08,13.1-22.14,19.66-47.2,19.66-75.19s-6.56-54.11-19.66-76.25Z"/><path d="M1989.11,160.25c-7.27-17.18-18.16-30.11-32.68-38.79-14.53-8.68-32.42-13.02-53.67-13.02-15.59,0-30.47,3.19-44.63,9.57-14.18,6.38-26.31,14.79-36.4,25.24-1.68,1.74-3.23,3.51-4.74,5.31l-1.9-34.27h-81.3V396.45h85.55V228.53c0-7.08,1.24-13.46,3.72-19.13,2.47-5.66,6.11-10.71,10.89-15.15,4.78-4.43,10.36-7.79,16.74-10.09,6.38-2.3,13.29-3.45,20.72-3.45,9.56-.35,17.54,1.25,23.91,4.78,6.38,3.55,11.16,9.03,14.35,16.47,3.19,7.44,4.78,16.83,4.78,28.16v166.33h85.55V223.75c0-25.15-3.64-46.31-10.89-63.5Z"/></svg>