<?xml version="1.0" encoding="UTF-8"?><svg id="Ebene_2" xmlns="http://www.w3.org/2000/svg" viewBox="0 0 184.26 233.59"><defs><style>.cls-1{stroke:#000;stroke-miterlimit:10;}</style></defs><g id="Layer_2_copy"><path class="cls-1" d="M37.58,117.22c0-.15,0-.29,0-.44,0-19.24-8.09-33.09-12.79-39.52-1.62-2.32-2.79-3.65-2.96-3.84-4.5-5.03-12.23-5.47-17.26-.97-5.03,4.5-5.47,12.23-.97,17.26,.01,.01,.14,.17,.36,.44l-.05,.05-.09-.09c.08,.08,.51,.57,1.14,1.4,2.6,3.73,8.04,13.04,8.16,25.7-.12,12.62-5.54,21.92-8.15,25.65-.63,.84-1.07,1.33-1.15,1.41l.09-.09,.05,.05c-.22,.28-.35,.43-.36,.44-4.5,5.03-4.07,12.76,.97,17.26,5.03,4.5,12.76,4.07,17.26-.97,.17-.19,1.34-1.53,2.97-3.86,4.7-6.44,12.77-20.28,12.77-39.5,0-.14,0-.27,0-.41Z"/><path class="cls-1" d="M55.58,186.42c-2.54,0-5.1-.8-7.28-2.46-5.27-4.02-6.27-11.55-2.25-16.82,.09-.13,13.79-18.89,13.79-49.52s-13.9-51.3-14.04-51.5c-3.83-5.41-2.56-12.9,2.85-16.73,5.4-3.84,12.9-2.56,16.73,2.85,.75,1.06,18.46,26.48,18.46,65.39s-17.95,63.09-18.71,64.09c-2.36,3.09-5.93,4.72-9.54,4.72Z"/><path class="cls-1" d="M99.6,209.32c-2.5,0-5.02-.78-7.17-2.39-5.31-3.97-6.4-11.49-2.43-16.79,.17-.23,19.82-27.55,19.82-72.2s-19.87-74.54-20.07-74.83c-3.78-5.45-2.42-12.92,3.02-16.7,5.45-3.78,12.92-2.42,16.7,3.02,.99,1.43,24.35,35.71,24.35,88.51s-23.59,85.22-24.59,86.56c-2.36,3.15-5.97,4.82-9.62,4.82Z"/><path class="cls-1" d="M142.98,233.09c-2.5,0-5.02-.78-7.17-2.39-5.31-3.97-6.4-11.49-2.43-16.79,.24-.33,26.38-36.5,26.38-95.64s-26.37-98.58-26.64-98.97c-3.74-5.46-2.37-12.92,3.07-16.68,5.45-3.75,12.89-2.41,16.66,3.03,1.26,1.82,30.9,45.33,30.9,112.62s-29.88,108.3-31.15,110c-2.36,3.15-5.97,4.82-9.62,4.82Z"/></g></svg>