<?xml version="1.0" encoding="UTF-8"?><svg id="Ebene_2" xmlns="http://www.w3.org/2000/svg" viewBox="0 0 2000 513.36"><g id="Layer_1"><g><path d="M87.18,280.8l13.76,8.47c99.5-52.93,56.73-160.9,0-176.78l-13.76,10.59s89.97,71.98,0,157.72Z"/><path d="M62.25,267.82c65.38-43.86,38.09-115.31,0-131.77l-9.3,7.89s49.35,52.13,0,117.57l9.3,6.31Z"/><path d="M256.93,88.63h104.95V0H47.83s-.05,0-.07,0c-.02,0-.05,0-.07,0H0V88.63H83.7c.48,.1,.95,.16,1.43,.16,14.8,0,28.77,2.59,41.9,7.77,13.14,5.18,24.51,12.76,34.13,22.75,9.63,9.99,17.2,21.83,22.75,35.52,5.55,13.69,8.32,29.23,8.32,46.61s-2.68,32.46-8.05,46.34c-5.36,13.87-13.13,25.72-23.31,35.52-10.17,9.81-22.38,17.3-36.63,22.48-14.24,5.18-30.05,7.77-47.45,7.77-9.47,0-18.62-1.13-27.47-3.28v87.55h-4.02c14.22,2.64,28.6,3.97,43.14,3.97,29.23,0,56.14-4.91,80.74-14.71,24.61-9.8,45.88-23.67,63.82-41.62,17.95-17.94,31.82-39.21,41.62-63.82,9.81-24.6,14.71-51.51,14.71-80.74s-5.08-55.49-15.26-79.91c-4.79-11.49-10.53-22.25-17.16-32.35Z"/><path d="M553.04,119.06c-17.36-7.08-37.91-10.63-61.64-10.63-25.86,0-49.78,4.97-71.74,14.88-21.97,9.92-41.45,23.56-58.45,40.92l51.01,49.42c9.91-11.69,20.27-20.1,31.09-25.24,10.8-5.13,23.12-7.7,36.93-7.7s25.24,3.45,33.21,10.36c7.97,6.91,11.96,17.63,11.96,32.15v6.38h-41.98c-20.91,0-39.24,1.86-55,5.58-15.77,3.72-28.88,9.21-39.32,16.47-10.45,7.27-18.33,16.39-23.65,27.37-5.31,10.98-7.97,23.74-7.97,38.26,0,17,4.16,31.8,12.49,44.37,8.32,12.58,19.66,22.41,34.01,29.49,14.35,7.08,30.37,10.63,48.09,10.63,13.46,0,26.3-2.66,38.53-7.97,12.22-5.31,23.56-12.57,34.01-21.79,.28-.24,.52-.51,.8-.76v25.2h82.36V206.75c0-22.32-4.78-40.74-14.35-55.27-9.56-14.52-23.03-25.32-40.38-32.41Zm-27.63,198.18c-1.43,1.48-2.93,2.91-4.52,4.28-6.56,5.67-14,10.01-22.32,13.02-8.33,3.01-17.1,4.52-26.3,4.52-6.38,0-11.96-1.06-16.74-3.19-4.78-2.13-8.59-5.13-11.43-9.03-2.84-3.89-4.25-8.5-4.25-13.82,0-4.96,.97-9.21,2.92-12.75,1.94-3.54,4.87-6.64,8.77-9.3,3.89-2.66,8.68-4.6,14.35-5.85,5.66-1.24,12.22-1.86,19.66-1.86h39.86v33.98Z"/><path d="M1104.07,222.2c-.34-3.99-.51-8.08-.51-12.27,0-16.65,2.66-31.53,7.97-44.64,5.31-13.1,12.57-24.45,21.79-34.01,9.21-9.57,20.1-16.82,32.68-21.78,12.57-4.96,25.95-7.44,40.12-7.44,16.65,0,31.79,3.37,45.44,10.1,13.63,6.73,25.95,16.12,36.93,28.16l55.8-63.24c-10.63-12.75-23.3-23.65-37.99-32.68-14.7-9.03-30.55-15.85-47.56-20.46-17.01-4.6-34.37-6.91-52.08-6.91-27.99,0-53.94,4.78-77.85,14.35-23.91,9.57-44.73,23.03-62.44,40.39-17.72,17.36-31.44,37.73-41.18,61.11-9.75,23.38-14.61,48.89-14.61,76.52,0,4.33,.15,8.58,.37,12.8h93.13Z"/><path d="M1341.08,350.75l-44.11-70.14c-6.38,7.09-14,13.47-22.85,19.13-8.86,5.67-18.33,10.01-28.43,13.02-10.1,3.02-20.64,4.52-31.62,4.52-16.65,0-31.8-2.47-45.43-7.44-13.64-4.96-25.33-12.13-35.07-21.52-.12-.12-.24-.24-.36-.36h-108.05c9.35,23.04,22.45,43,39.33,59.88,17.18,17.19,37.55,30.47,61.11,39.85,23.56,9.38,49.33,14.08,77.32,14.08,18.42,0,36.58-2.22,54.47-6.64,17.89-4.43,34.18-10.54,48.89-18.33,14.7-7.79,26.31-16.47,34.81-26.04Z"/><path d="M966.97,287.95h-85.97c-.76,2.12-1.57,4.2-2.49,6.21-5.14,11.16-12.41,19.75-21.79,25.77-9.39,6.03-20.46,9.04-33.21,9.04s-24.44-3.01-34.01-9.04c-9.56-6.02-17-14.61-22.32-25.77-5.31-11.16-7.97-24-7.97-38.53s2.66-28.34,7.97-39.32c5.31-10.98,12.75-19.57,22.32-25.77,9.57-6.19,20.9-9.3,34.01-9.3s23.82,3.11,33.21,9.3c9.38,6.2,16.65,14.88,21.79,26.04,.84,1.82,1.58,3.71,2.28,5.62h86.11c-2.61-15.41-7.06-29.71-13.46-42.82-10.81-22.14-25.6-39.41-44.37-51.81-18.78-12.4-40.21-18.6-64.3-18.6-16.3,0-31.71,2.92-46.23,8.77-14.53,5.85-26.66,13.47-36.4,22.85-1.15,1.11-2.23,2.23-3.27,3.36l-1.77-29.66h-81.3v399.07h86.09v-145.1c9.82,9.69,21.85,17.59,36.13,23.67,14.52,6.19,29.93,9.3,46.23,9.3,24.09,0,45.61-6.29,64.56-18.87,18.95-12.57,33.83-29.84,44.64-51.81,6.45-13.12,10.93-27.34,13.53-42.61Z"/><path d="M1658.32,179.38c-13.11-22.14-31.09-39.5-53.94-52.08-22.85-12.57-48.98-18.87-78.38-18.87s-55.09,6.29-78.11,18.87c-23.03,12.58-41.1,29.94-54.2,52.08-7.77,13.12-13.22,27.4-16.38,42.82h89.6c.69-1.64,1.43-3.26,2.24-4.83,5.66-10.98,13.46-19.66,23.38-26.04,9.91-6.38,21.07-9.57,33.48-9.57s24,3.1,33.74,9.3c9.74,6.2,17.45,14.88,23.12,26.04,5.66,11.16,8.32,24,7.97,38.53,.35,13.82-2.31,26.22-7.97,37.2-5.67,10.99-13.38,19.66-23.12,26.04-9.75,6.38-20.99,9.57-33.74,9.57s-23.57-3.19-33.48-9.57c-9.92-6.38-17.72-15.05-23.38-26.04-.82-1.59-1.57-3.23-2.27-4.88h-89.65c3.15,15.34,8.63,29.63,16.47,42.87,13.1,22.14,31.17,39.51,54.2,52.08,23.02,12.58,49.06,18.86,78.11,18.86s55.53-6.28,78.38-18.86c22.85-12.57,40.82-29.93,53.94-52.08,13.1-22.14,19.66-47.2,19.66-75.19s-6.56-54.11-19.66-76.25Z"/><path d="M1989.11,160.25c-7.27-17.18-18.16-30.11-32.68-38.79-14.53-8.68-32.42-13.02-53.67-13.02-15.59,0-30.47,3.19-44.63,9.57-14.18,6.38-26.31,14.79-36.4,25.24-1.68,1.74-3.23,3.51-4.74,5.31l-1.9-34.27h-81.3V396.45h85.55V228.53c0-7.08,1.24-13.46,3.72-19.13,2.47-5.66,6.11-10.71,10.89-15.15,4.78-4.43,10.36-7.79,16.74-10.09,6.38-2.3,13.29-3.45,20.72-3.45,9.56-.35,17.54,1.25,23.91,4.78,6.38,3.55,11.16,9.03,14.35,16.47,3.19,7.44,4.78,16.83,4.78,28.16v166.33h85.55V223.75c0-25.15-3.64-46.31-10.89-63.5Z"/></g></g></svg>